<svg width="19px" height="20px" viewBox="0 0 19 20" version="1.1" xmlns="http://www.w3.org/2000/svg" xmlns:xlink="http://www.w3.org/1999/xlink">
    <!-- Generator: Sketch 48.2 (47327) - http://www.bohemiancoding.com/sketch -->
    <title>Combined Shape</title>
    <desc>Created with Sketch.</desc>
    <defs/>
    <g id="Menu-Black" stroke="none" stroke-width="1" fill="none" fill-rule="evenodd" transform="translate(-1277.000000, -22.000000)">
        <g id="menu" transform="translate(4.000000, 9.000000)" fill="#000000" fill-rule="nonzero">
            <g id="bt_pesquisa_big" transform="translate(1273.000000, 13.000000)">
                <path d="M14.7139673,14.2997538 L18.8565613,18.4423477 L17.4423477,19.8565613 L13.1815145,15.5957281 C11.8389925,16.4832631 10.2298414,17 8.5,17 C3.80557963,17 0,13.1944204 0,8.5 C0,3.80557963 3.80557963,0 8.5,0 C13.1944204,0 17,3.80557963 17,8.5 C17,10.7418486 16.1321005,12.7809885 14.7139673,14.2997538 Z M8.5,15 C12.0898509,15 15,12.0898509 15,8.5 C15,4.91014913 12.0898509,2 8.5,2 C4.91014913,2 2,4.91014913 2,8.5 C2,12.0898509 4.91014913,15 8.5,15 Z" id="Combined-Shape"/>
            </g>
        </g>
    </g>
</svg>